<svg xmlns="http://www.w3.org/2000/svg" viewBox="0 0 1685.08 788"><defs><style>.cls-1{fill:#fff;}</style></defs><g id="Name"><path class="cls-1" d="M199.94,563.79c.37,3.33,1,8.53,5,9.83a20.22,20.22,0,0,0,6,.83c.47,0,.74.09.74.47,0,.55-.83.83-1.94.83-2,0-12.06-.09-15.49-.37-2.13-.19-2.6-.46-2.6-.93s.19-.56.65-.65.56-1.67.37-3.34l-4.45-48.13H188l-22.72,48.23c-1.95,4.08-2.22,4.91-3.06,4.91-.65,0-1.11-.93-2.87-4.26-2.41-4.55-10.39-20.59-10.85-21.52-.84-1.67-11.22-23.93-12.24-26.43h-.38l-3.7,43c-.1,1.48-.1,3.15-.1,4.73a3,3,0,0,0,2.41,2.87,16.64,16.64,0,0,0,3.53.47c.37,0,.74.18.74.46,0,.65-.56.84-1.67.84-3.43,0-7.88-.28-8.62-.28s-5.29.28-7.79.28c-.93,0-1.58-.19-1.58-.84,0-.28.46-.46.93-.46a11.83,11.83,0,0,0,2.78-.28c3.06-.56,3.34-4.17,3.71-7.7l6.68-60.46c.09-1,.46-1.67,1-1.67s.92.37,1.39,1.39L164,564l27.27-58.24c.37-.83.74-1.48,1.39-1.48s.93.74,1.11,2.5Z" transform="translate(-117.46 -146)"/><path class="cls-1" d="M324.91,516.89c1-2.63,1.28-3.11,1.75-3.11s.8.4,1.76,2.87c1.19,3,13.71,36,18.57,48.07,2.87,7.1,5.18,8.37,6.86,8.85a10.23,10.23,0,0,0,3.19.48c.48,0,.79.08.79.48s-.71.64-1.59.64c-1.2,0-7,0-12.52-.16-1.51-.08-2.39-.08-2.39-.56,0-.32.24-.48.56-.56.48-.16,1-.88.48-2.15L335,552.13a.7.7,0,0,0-.72-.48H317.1a.84.84,0,0,0-.8.64l-4.78,14.11a16.73,16.73,0,0,0-1.12,5.34c0,1.59,1.68,2.31,3,2.31h.8c.56,0,.8.16.8.48,0,.48-.48.64-1.2.64-1.91,0-5.34-.24-6.22-.24s-5.26.24-9,.24c-1,0-1.51-.16-1.51-.64,0-.32.32-.48.72-.48.55,0,1.67-.08,2.31-.16,3.66-.48,5.26-3.51,6.69-7.49Zm8.29,31.89c.4,0,.4-.24.32-.56L326,526.7q-.6-1.8-1.2,0l-7,21.52c-.16.4,0,.56.23.56Z" transform="translate(-117.46 -146)"/><path class="cls-1" d="M449.34,536.9c0-12.44,0-14.67-.16-17.22-.16-2.71-.79-4-3.43-4.54a14.77,14.77,0,0,0-2.71-.24c-.31,0-.63-.16-.63-.48,0-.48.4-.64,1.27-.64,3.59,0,8.45.24,9.17.24s5.5-.24,7.89-.24c.88,0,1.28.16,1.28.64,0,.32-.32.48-.64.48a11.69,11.69,0,0,0-2,.24c-2.16.32-2.79,1.75-2.95,4.54-.16,2.55-.16,4.78-.16,17.22v11.16c0,11.48,2.55,16.42,6,19.69,3.9,3.67,7.49,4.39,12,4.39a16.74,16.74,0,0,0,12.52-5.74c3.67-4.55,4.62-11.32,4.62-19.53v-10c0-12.44,0-14.67-.16-17.22-.15-2.71-.79-4-3.42-4.54a14.93,14.93,0,0,0-2.71-.24c-.32,0-.64-.16-.64-.48,0-.48.4-.64,1.27-.64,3.59,0,8,.24,8.45.24s4.31-.24,6.7-.24c.88,0,1.28.16,1.28.64,0,.32-.32.48-.64.48a11.69,11.69,0,0,0-2,.24c-2.16.48-2.79,1.75-2.95,4.54-.16,2.55-.16,4.78-.16,17.22v8.53c0,8.61-1,18.18-7.34,23.84a23.36,23.36,0,0,1-16.42,5.9c-2.71,0-10.76-.32-16.42-5.66-3.91-3.75-6.94-9.33-6.94-21Z" transform="translate(-117.46 -146)"/><path class="cls-1" d="M592.9,537.46c0-12.44,0-14.67-.16-17.22-.16-2.71-.8-4-3.43-4.54a14.85,14.85,0,0,0-2.71-.24c-.32,0-.64-.16-.64-.48,0-.48.4-.64,1.28-.64,3.59,0,8.61.24,9,.24.87,0,6.93-.24,9.4-.24,5,0,10.37.48,14.59,3.51a13.92,13.92,0,0,1,5.5,10.84c0,5.9-2.47,11.8-9.64,18.42,6.53,8.37,11.95,15.46,16.58,20.4,4.3,4.55,7.73,5.42,9.72,5.74a19.09,19.09,0,0,0,3.11.24c.4,0,.72.24.72.48,0,.48-.48.64-1.91.64h-5.66c-4.47,0-6.46-.4-8.53-1.52-3.43-1.83-6.22-5.74-10.77-11.72-3.34-4.38-7.09-9.72-8.68-11.79a1.29,1.29,0,0,0-1-.48l-9.81-.16c-.39,0-.55.24-.55.64v1.91c0,7.65,0,14,.39,17.3.24,2.31.72,4.06,3.11,4.38a34.73,34.73,0,0,0,3.59.32c.48,0,.64.24.64.48,0,.4-.4.64-1.28.64-4.38,0-9.4-.24-9.8-.24-.08,0-5.1.24-7.5.24-.87,0-1.27-.16-1.27-.64,0-.24.16-.48.64-.48a12.35,12.35,0,0,0,2.39-.32c1.59-.32,2-2.07,2.31-4.38.4-3.35.4-9.65.4-17.3Zm6.38,6.93a1.05,1.05,0,0,0,.55,1c1.2.72,4.87,1.28,8.37,1.28a10.28,10.28,0,0,0,6-1.52c2.79-1.91,4.87-6.22,4.87-12.27,0-10-5.27-16-13.8-16a24,24,0,0,0-5.34.48,1,1,0,0,0-.63,1Z" transform="translate(-117.46 -146)"/><path class="cls-1" d="M762.24,513.22c17.93,0,31.33,11.32,31.33,29.9,0,17.86-12.6,32.6-31.81,32.6-21.84,0-30.93-17-30.93-31.33C730.83,531.48,740.24,513.22,762.24,513.22Zm1.67,59.48c7.18,0,22-4.15,22-27.35,0-19.13-11.63-29.41-24.23-29.41-13.31,0-23.28,8.76-23.28,26.22C738.4,560.74,749.56,572.7,763.91,572.7Z" transform="translate(-117.46 -146)"/><path class="cls-1" d="M1018.41,551.37c0-7.49-.46-8.5-4.16-9.52a16.83,16.83,0,0,0-3.14-.28c-.37,0-.74-.18-.74-.55,0-.56.46-.74,1.48-.74,4.16,0,10,.28,10.45.28s6.28-.28,9.06-.28c1,0,1.48.18,1.48.74,0,.37-.37.55-.74.55a13.25,13.25,0,0,0-2.31.28c-2.5.46-3.24,2-3.43,5.27-.18,3-.18,5.73-.18,9.62v10.35c0,4.17-.09,4.35-1.2,5-5.92,3.14-14.24,4.16-19.61,4.16-7,0-20.16-.92-30.42-9.89-5.64-4.91-11-14.8-11-26.36,0-14.8,7.22-25.25,15.45-30.42s17.47-5.83,24.6-5.83a79.08,79.08,0,0,1,14.14,1.57,47.31,47.31,0,0,0,7.49.93c.93.09,1.11.46,1.11.83a118.16,118.16,0,0,0-.64,13.13c0,1.48-.19,1.94-.83,1.94-.47,0-.56-.55-.65-1.38a14.41,14.41,0,0,0-1.94-6.11c-2.32-3.51-9.81-7.49-21.74-7.49-5.82,0-12.76.56-19.79,6.1-5.36,4.26-9.15,12.67-9.15,23.49,0,13,6.57,22.47,9.8,25.62a33.66,33.66,0,0,0,24.23,9.89c3.33,0,8.14-.55,10.54-1.94a3.36,3.36,0,0,0,1.85-3.24Z" transform="translate(-117.46 -146)"/><path class="cls-1" d="M1130.22,551.49c0,7.65,0,14,.4,17.3.24,2.31.72,4.06,3.11,4.38a34.73,34.73,0,0,0,3.59.32c.48,0,.64.24.64.48,0,.4-.4.64-1.28.64-4.38,0-9.41-.24-9.8-.24s-5.43.24-7.82.24c-.87,0-1.27-.16-1.27-.64,0-.24.16-.48.63-.48a12.35,12.35,0,0,0,2.4-.32c1.59-.32,2-2.07,2.31-4.38.4-3.35.4-9.65.4-17.3v-14c0-12.44,0-14.67-.16-17.22-.16-2.71-1-4.07-2.71-4.46a10.49,10.49,0,0,0-2.47-.32c-.32,0-.64-.16-.64-.48,0-.48.4-.64,1.27-.64,2.63,0,7.66.24,8.06.24s5.42-.24,7.81-.24c.87,0,1.27.16,1.27.64,0,.32-.32.48-.63.48a11.89,11.89,0,0,0-2,.24c-2.15.39-2.79,1.75-2.95,4.54-.16,2.55-.16,4.78-.16,17.22Z" transform="translate(-117.46 -146)"/><path class="cls-1" d="M1236.12,551.53c0,11.72.31,16.82,1.75,18.25,1.28,1.28,3.35,1.84,9.57,1.84,4.22,0,7.73-.08,9.64-2.39a11,11,0,0,0,2.07-4.79c.08-.63.24-1,.72-1s.48.32.48,1.19a50.89,50.89,0,0,1-1.2,8c-.55,1.83-.79,2.15-5,2.15-5.74,0-9.88-.16-13.23-.24s-5.82-.24-8.13-.24c-.32,0-1.68.08-3.27.08s-3.35.16-4.55.16c-.87,0-1.27-.16-1.27-.64,0-.24.16-.48.64-.48a12.35,12.35,0,0,0,2.39-.32c1.59-.32,2-2.07,2.31-4.38.4-3.35.4-9.65.4-17.3v-14c0-12.44,0-14.67-.16-17.22-.16-2.71-.8-4-3.43-4.54a14.85,14.85,0,0,0-2.71-.24c-.32,0-.64-.16-.64-.48,0-.48.4-.64,1.28-.64,3.59,0,8.61.24,9,.24s6.22-.24,8.61-.24c.87,0,1.27.16,1.27.64,0,.32-.32.48-.63.48a18.79,18.79,0,0,0-2.64.24c-2.31.39-3,1.75-3.11,4.54-.15,2.55-.15,4.78-.15,17.22Z" transform="translate(-117.46 -146)"/><path class="cls-1" d="M1372.5,516.89c1-2.63,1.28-3.11,1.75-3.11s.8.4,1.76,2.87c1.19,3,13.71,36,18.57,48.07,2.87,7.1,5.18,8.37,6.86,8.85a10.23,10.23,0,0,0,3.19.48c.48,0,.79.08.79.48s-.71.64-1.59.64c-1.2,0-7,0-12.52-.16-1.51-.08-2.39-.08-2.39-.56,0-.32.24-.48.56-.56.48-.16,1-.88.48-2.15l-7.41-19.61a.7.7,0,0,0-.72-.48h-17.14a.84.84,0,0,0-.8.64l-4.78,14.11a16.73,16.73,0,0,0-1.12,5.34c0,1.59,1.68,2.31,3,2.31h.8c.56,0,.8.16.8.48,0,.48-.48.64-1.2.64-1.91,0-5.34-.24-6.22-.24s-5.26.24-9,.24c-1,0-1.51-.16-1.51-.64,0-.32.32-.48.72-.48s1.67-.08,2.31-.16c3.66-.48,5.26-3.51,6.69-7.49Zm8.29,31.89c.4,0,.4-.24.32-.56l-7.57-21.52q-.6-1.8-1.2,0l-7,21.52c-.16.4,0,.56.23.56Z" transform="translate(-117.46 -146)"/><path class="cls-1" d="M1497.54,537.46c0-12.44,0-14.67-.16-17.22-.16-2.71-.8-4-3.43-4.54a14.85,14.85,0,0,0-2.71-.24c-.32,0-.64-.16-.64-.48,0-.48.4-.64,1.28-.64,3.59,0,8.61.24,9,.24.87,0,6.93-.24,9.4-.24,5,0,10.37.48,14.59,3.51a14,14,0,0,1,5.5,10.84c0,5.9-2.47,11.8-9.64,18.42,6.53,8.37,12,15.46,16.58,20.4,4.3,4.55,7.73,5.42,9.72,5.74a19.09,19.09,0,0,0,3.11.24c.4,0,.72.24.72.48,0,.48-.48.64-1.91.64h-5.66c-4.47,0-6.46-.4-8.53-1.52-3.43-1.83-6.22-5.74-10.76-11.72-3.35-4.38-7.1-9.72-8.69-11.79a1.29,1.29,0,0,0-1-.48l-9.81-.16c-.39,0-.55.24-.55.64v1.91c0,7.65,0,14,.39,17.3.24,2.31.72,4.06,3.11,4.38a34.73,34.73,0,0,0,3.59.32c.48,0,.64.24.64.48,0,.4-.4.64-1.28.64-4.38,0-9.4-.24-9.8-.24-.08,0-5.1.24-7.5.24-.87,0-1.27-.16-1.27-.64,0-.24.16-.48.64-.48a12.35,12.35,0,0,0,2.39-.32c1.59-.32,2-2.07,2.31-4.38.4-3.35.4-9.65.4-17.3Zm6.38,6.93a1.05,1.05,0,0,0,.55,1c1.2.72,4.87,1.28,8.37,1.28a10.28,10.28,0,0,0,6-1.52c2.79-1.91,4.87-6.22,4.87-12.27,0-10-5.26-16-13.8-16a24,24,0,0,0-5.34.48,1,1,0,0,0-.63,1Z" transform="translate(-117.46 -146)"/><path class="cls-1" d="M1642.45,537.11c0-12.44,0-14.67-.16-17.22-.16-2.71-.8-4-3.43-4.55a14.85,14.85,0,0,0-2.71-.24c-.32,0-.64-.16-.64-.47,0-.48.4-.64,1.28-.64,3.58,0,8.61.24,9,.24,1,0,6-.24,10.77-.24,7.89,0,22.48-.72,32,9.09,4,4.14,7.74,10.76,7.74,20.24a32.63,32.63,0,0,1-8.61,22.49c-3.43,3.58-10.61,9.16-24.16,9.16-3.43,0-7.65-.24-11.08-.47s-6.22-.48-6.62-.48c-.15,0-1.51,0-3.18.08s-3.43.16-4.63.16c-.87,0-1.27-.16-1.27-.64,0-.24.16-.48.63-.48a12.35,12.35,0,0,0,2.4-.32c1.59-.32,2-2.07,2.31-4.38.4-3.35.4-9.65.4-17.3Zm6.69,8.61c0,8.45.08,15.78.16,17.3.08,2,.24,5.18.88,6.05,1,1.52,4.14,3.19,13.55,3.19a26.74,26.74,0,0,0,19-7.41c4.15-4.07,6.38-11.72,6.38-19.05a28.48,28.48,0,0,0-7.65-20.09c-7.49-7.9-16.58-9-26.07-9a21.24,21.24,0,0,0-5.18.56,1.44,1.44,0,0,0-1,1.59c-.08,2.71-.08,10.84-.08,17Z" transform="translate(-117.46 -146)"/><path class="cls-1" d="M1793.2,551.49c0,7.65,0,14,.4,17.3.24,2.31.71,4.06,3.11,4.38a34.56,34.56,0,0,0,3.58.32c.48,0,.64.24.64.48,0,.4-.4.64-1.27.64-4.39,0-9.41-.24-9.81-.24s-5.42.24-7.81.24c-.88,0-1.28-.16-1.28-.64,0-.24.16-.48.64-.48a12.25,12.25,0,0,0,2.39-.32c1.6-.32,2-2.07,2.31-4.38.4-3.35.4-9.65.4-17.3v-14c0-12.44,0-14.67-.16-17.22-.16-2.71-.95-4.07-2.71-4.46a10.42,10.42,0,0,0-2.47-.32c-.32,0-.64-.16-.64-.48,0-.48.4-.64,1.28-.64,2.63,0,7.65.24,8,.24s5.42-.24,7.81-.24c.88,0,1.28.16,1.28.64,0,.32-.32.48-.64.48a11.69,11.69,0,0,0-2,.24c-2.15.39-2.79,1.75-3,4.54-.16,2.55-.16,4.78-.16,17.22Z" transform="translate(-117.46 -146)"/></g><g id="Logo"><path class="cls-1" d="M780.46,156,674.63,460.07h16.65L780.46,206V460.07H902.33V207.89a40,40,0,0,1,39.93-40l60.2-.12V156.29Zm122,715.6-.09-76.13V619.93H780.44V831.74l0,39.8a40,40,0,0,1-40,40h-59V924h320V911.52h-59A40,40,0,0,1,902.42,871.6Zm-339-92.12L507.14,619.93H379L487.46,924h41L635.17,619.93H619ZM216.69,207.89V460.07h13.45V203l91.75,257.11H450.7L343.46,156.29h-226V167.8l59.31.12A40,40,0,0,1,216.69,207.89Zm13.66,663.78-.21-73.21V619.93H216.69V775.48l-.16,96.14a40,40,0,0,1-40,39.9H117.46V924h212V911.52H270.35A40,40,0,0,1,230.35,871.67Z" transform="translate(-117.46 -146)"/><path class="cls-1" d="M1486.31,621.7v12.48h29.44l29.34-.07a40,40,0,0,1,40.12,40v115.1C1585.21,891,1563.33,920,1415.29,920c-90,0-162.74-65.34-172.85-300h-139.9c19.26,174.33,122.55,314,312.75,314,114,0,120-32,196-32,34.5,0,55.51,7.75,67.9,15.5s16.18,15.5,16.25,15.5H1707V674.08a40,40,0,0,1,40.09-40l49.88.1h5.55V621.7Zm-66-465.7c182,0,223.52,145.1,235.06,219.06l7.36-.06,1-217.32H1655c0,12.49-4.67,37.32-36.68,37.32-68.21,0-77-49-193-49-174.78,0-293,102.29-320.14,314h139.69C1259.8,262,1321.07,156,1420.29,156Z" transform="translate(-117.46 -146)"/></g></svg>